<?xml version="1.0" standalone="no"?>
<!DOCTYPE svg PUBLIC "-//W3C//DTD SVG 20010904//EN"
 "http://www.w3.org/TR/2001/REC-SVG-20010904/DTD/svg10.dtd">
<svg version="1.0" xmlns="http://www.w3.org/2000/svg"
 width="256.000000pt" height="256.000000pt" viewBox="0 0 256.000000 256.000000"
 preserveAspectRatio="xMidYMid meet">
<metadata>
Created by potrace 1.16, written by Peter Selinger 2001-2019
</metadata>
<g transform="translate(0.000000,256.000000) scale(0.100000,-0.100000)"
fill="#FFFFFF" stroke="none">
<path d="M1045 2534 c-386 -69 -719 -313 -894 -654 -104 -203 -141 -358 -141
-594 0 -240 40 -413 141 -606 153 -294 423 -520 745 -625 234 -76 549 -74 784
5 263 89 511 278 663 507 152 228 217 441 217 712 0 274 -64 484 -215 712
-192 288 -494 484 -839 544 -111 19 -352 18 -461 -1z m449 -90 c351 -57 681
-301 846 -623 l22 -45 -33 -27 c-61 -50 -231 -152 -374 -224 -391 -199 -1068
-411 -1658 -520 -76 -14 -145 -25 -152 -25 -13 0 -35 56 -35 90 0 12 42 22
193 48 279 46 584 125 789 202 62 23 83 55 58 85 -18 21 -38 19 -132 -15 -194
-69 -479 -140 -744 -185 -197 -34 -184 -36 -184 28 l0 53 98 12 c139 18 407
73 540 112 116 34 140 50 127 90 -10 31 -39 32 -127 6 -124 -38 -276 -72 -441
-101 -197 -33 -187 -34 -187 19 0 24 6 48 12 53 7 5 74 19 148 31 138 23 277
54 318 72 19 8 23 17 20 43 -4 43 -20 44 -160 13 -136 -30 -298 -59 -304 -53
-2 2 3 27 11 55 12 39 21 53 38 57 12 2 73 14 136 25 142 26 153 32 149 73 -4
42 -25 44 -154 18 -54 -11 -100 -18 -102 -16 -7 6 62 123 107 185 59 78 186
205 256 255 275 196 576 265 919 209z m941 -879 c140 -540 -130 -1106 -649
-1361 -240 -117 -525 -148 -776 -84 -94 24 -240 78 -240 88 0 4 47 20 104 35
57 16 108 33 115 40 6 6 11 24 11 39 0 37 -33 45 -97 24 -53 -17 -246 -66
-261 -66 -4 0 -32 18 -61 39 l-52 39 53 12 c99 23 293 82 306 92 18 15 15 67
-5 75 -9 4 -44 -1 -77 -11 -103 -29 -320 -85 -341 -88 -14 -2 -34 13 -63 43
l-42 46 111 22 c144 29 398 98 427 117 28 18 29 59 2 74 -16 9 -39 5 -103 -14
-143 -43 -451 -116 -491 -116 -6 0 -23 22 -38 48 l-27 48 147 28 c266 51 613
145 670 182 28 18 26 51 -3 69 -17 11 -36 8 -125 -21 -58 -19 -175 -52 -260
-74 -150 -37 -471 -104 -475 -98 -8 11 -35 91 -32 94 2 2 68 16 147 30 568
101 1250 312 1666 514 121 59 304 166 378 221 22 16 43 26 47 22 5 -5 20 -53
34 -108z"/>
<path d="M1261 2385 c-177 -50 -272 -171 -272 -345 1 -262 263 -501 566 -518
271 -14 447 127 446 358 0 208 -161 402 -403 487 -92 33 -253 41 -337 18z
m262 -90 c69 -18 145 -55 211 -103 l48 -35 -63 -32 -63 -32 -37 24 c-46 30
-120 53 -173 53 -39 0 -43 3 -81 62 -22 34 -41 65 -43 70 -6 14 140 9 201 -7z
m-247 -95 l46 -69 -25 -31 c-31 -37 -42 -84 -33 -148 l6 -48 -63 -31 -64 -31
-17 28 c-77 131 -57 296 47 371 22 16 44 29 48 29 5 0 30 -31 55 -70z m261
-144 c108 -51 137 -158 53 -201 -42 -22 -79 -19 -138 11 -107 53 -135 155 -54
198 39 22 80 19 139 -8z m337 -28 c69 -142 40 -288 -72 -359 l-46 -29 -48 72
-47 72 24 26 c43 45 58 124 35 184 -9 24 -6 28 48 55 31 17 62 30 69 31 6 0
23 -24 37 -52z m-505 -224 c46 -30 120 -54 170 -54 33 0 39 -5 76 -62 22 -34
42 -65 43 -70 6 -14 -130 -9 -192 7 -67 18 -175 72 -225 114 l-35 29 60 30
c32 17 60 31 62 32 1 0 20 -12 41 -26z"/>
</g>
</svg>
