<?xml version="1.0" standalone="no"?>
<!DOCTYPE svg PUBLIC "-//W3C//DTD SVG 20010904//EN"
 "http://www.w3.org/TR/2001/REC-SVG-20010904/DTD/svg10.dtd">
<svg version="1.0" xmlns="http://www.w3.org/2000/svg"
 width="256.000000pt" height="256.000000pt" viewBox="0 0 256.000000 256.000000"
 preserveAspectRatio="xMidYMid meet">
<metadata>
Created by potrace 1.16, written by Peter Selinger 2001-2019
</metadata>
<g transform="translate(0.000000,256.000000) scale(0.100000,-0.100000)"
fill="#000000" stroke="none">
<path d="M1200 2533 c-14 -9 -36 -26 -50 -38 -19 -17 -42 -24 -102 -29 -183
-14 -368 -113 -460 -244 -92 -132 -158 -358 -158 -539 0 -34 -4 -64 -9 -67
-25 -16 -114 -325 -175 -606 -14 -63 -32 -135 -41 -160 -63 -178 -134 -422
-127 -439 7 -20 536 -370 599 -397 48 -20 1158 -20 1206 0 62 26 592 377 599
396 6 17 -68 275 -127 440 -9 25 -27 97 -41 160 -61 281 -150 590 -175 606 -5
3 -9 33 -9 67 0 80 -24 224 -51 313 -79 257 -239 406 -491 458 -42 9 -95 16
-117 16 -22 0 -43 5 -46 11 -4 6 -25 24 -47 40 -34 24 -51 29 -97 29 -36 0
-66 -6 -81 -17z m120 -83 c37 -20 40 -59 40 -521 l0 -449 -80 0 -81 0 3 463
c3 423 5 465 21 490 19 29 61 36 97 17z m-200 -354 l0 -283 -177 -6 c-188 -5
-287 -23 -372 -66 -22 -12 -42 -21 -44 -21 -8 0 15 150 34 220 50 185 142 307
281 374 82 39 171 64 236 65 l42 1 0 -284z m460 268 c218 -51 356 -191 419
-424 19 -70 42 -220 34 -220 -2 0 -22 9 -44 21 -85 43 -184 61 -371 66 l-178
6 0 283 0 284 38 0 c20 0 66 -7 102 -16z m-460 -749 c0 -85 -3 -115 -12 -115
-7 0 -49 9 -93 21 -50 12 -129 22 -213 26 -158 7 -238 -9 -307 -63 l-44 -33
14 38 c56 159 168 215 460 230 83 4 160 9 173 9 22 2 22 0 22 -113z m645 94
c136 -19 250 -71 290 -133 9 -14 25 -47 36 -75 l19 -51 -44 34 c-71 54 -150
70 -308 63 -84 -4 -163 -14 -213 -26 -44 -12 -86 -21 -92 -21 -10 0 -13 29
-13 113 l0 114 128 -4 c70 -2 159 -8 197 -14z m-910 -253 c33 -3 105 -17 160
-31 87 -21 122 -25 265 -25 118 0 183 4 225 16 130 33 204 45 295 45 202 1
257 -50 359 -329 l42 -113 -51 -84 c-95 -158 -173 -350 -224 -553 l-21 -82
-218 201 -217 201 0 50 c0 80 -39 151 -102 184 -35 18 -141 18 -176 0 -63 -33
-102 -104 -102 -184 l0 -50 -217 -201 -217 -201 -32 118 c-58 209 -114 345
-209 507 l-55 94 41 113 c75 205 122 276 204 308 35 14 129 28 165 24 14 -2
52 -5 85 -8z m-440 -731 c29 -60 66 -153 84 -205 32 -100 81 -293 81 -322 0
-13 -56 19 -202 114 -112 72 -204 131 -205 132 -2 2 126 404 141 442 6 15 10
13 28 -17 12 -19 45 -83 73 -144z m1903 -60 c39 -121 70 -221 69 -221 -1 -1
-93 -60 -204 -132 -147 -95 -203 -127 -203 -114 0 28 49 221 81 322 36 112
167 386 179 374 5 -5 40 -108 78 -229z m-987 185 c48 -26 70 -158 30 -180 -28
-14 -144 -13 -165 3 -36 27 -15 149 31 176 23 13 79 14 104 1z m-51 -270 c79
0 117 4 133 14 21 14 29 8 174 -127 l153 -141 -34 -28 c-57 -47 -78 -131 -51
-200 7 -17 -15 -18 -375 -18 -360 0 -382 1 -375 18 29 71 12 146 -45 195 l-39
33 152 141 c145 135 153 141 174 127 16 -10 54 -14 133 -14z m-475 -365 c14
-13 25 -36 25 -50 0 -33 -42 -75 -75 -75 -33 0 -75 42 -75 75 0 33 42 75 75
75 14 0 37 -11 50 -25z m1050 0 c14 -13 25 -36 25 -50 0 -33 -42 -75 -75 -75
-33 0 -75 42 -75 75 0 33 42 75 75 75 14 0 37 -11 50 -25z"/>
<path d="M865 1379 c-93 -12 -150 -56 -196 -154 -47 -98 -34 -185 35 -230 69
-45 302 -64 382 -30 86 36 114 86 114 205 0 108 -29 161 -105 190 -41 16 -169
27 -230 19z m215 -117 c42 -32 44 -152 4 -193 -57 -56 -327 -36 -351 27 -15
40 37 150 83 175 59 31 217 26 264 -9z"/>
<path d="M1570 1379 c-112 -10 -162 -36 -196 -101 -18 -35 -19 -178 0 -221 34
-79 100 -108 245 -108 208 1 301 54 301 171 0 83 -71 198 -144 237 -41 21
-118 29 -206 22z m178 -110 c45 -28 93 -135 79 -173 -24 -63 -294 -83 -351
-27 -41 41 -38 161 5 193 47 36 215 40 267 7z"/>
<path d="M1245 498 c-3 -8 -4 -86 -3 -173 l3 -160 35 0 35 0 0 170 0 170 -33
3 c-20 2 -34 -2 -37 -10z"/>
<path d="M1045 397 c-3 -7 -4 -62 -3 -123 l3 -109 35 0 35 0 0 120 0 120 -33
3 c-20 2 -34 -2 -37 -11z"/>
<path d="M1445 397 c-3 -7 -4 -62 -3 -123 l3 -109 35 0 35 0 0 120 0 120 -33
3 c-20 2 -34 -2 -37 -11z"/>
</g>
</svg>
