<?xml version="1.0" standalone="no"?>
<!DOCTYPE svg PUBLIC "-//W3C//DTD SVG 20010904//EN"
 "http://www.w3.org/TR/2001/REC-SVG-20010904/DTD/svg10.dtd">
<svg version="1.0" xmlns="http://www.w3.org/2000/svg"
 width="256.000000pt" height="256.000000pt" viewBox="0 0 256.000000 256.000000"
 preserveAspectRatio="xMidYMid meet">
<metadata>
Created by potrace 1.16, written by Peter Selinger 2001-2019
</metadata>
<g transform="translate(0.000000,256.000000) scale(0.100000,-0.100000)"
fill="#FFFFFF" stroke="none">
<path d="M1066 2344 c-348 -69 -651 -315 -785 -638 -57 -138 -73 -217 -78
-395 l-5 -164 -45 -65 c-227 -332 -179 -587 123 -658 53 -12 102 -15 209 -11
l140 4 86 -53 c178 -112 356 -164 565 -164 310 0 570 112 786 338 92 97 147
177 204 296 68 145 85 224 91 420 l5 169 45 65 c227 332 179 587 -123 658 -53
12 -102 15 -211 12 l-142 -5 -43 29 c-112 76 -261 136 -401 163 -98 19 -326
18 -421 -1z m329 -78 c137 -11 312 -76 446 -166 82 -56 203 -177 259 -259 59
-88 115 -211 140 -309 l21 -83 -52 -59 c-98 -113 -300 -283 -471 -398 -293
-196 -604 -346 -886 -426 -194 -56 -192 -56 -252 0 -222 207 -336 507 -309
805 43 468 434 859 898 898 47 4 97 6 111 5 14 -2 57 -5 95 -8z m915 -221
c136 -54 178 -152 129 -298 -18 -54 -93 -197 -104 -197 -2 0 -11 26 -20 58
-39 134 -130 292 -230 401 l-60 64 120 -5 c83 -3 134 -11 165 -23z m-42 -851
c-9 -109 -39 -217 -88 -321 l-39 -83 -38 16 c-47 20 -163 15 -209 -9 -110 -57
-167 -194 -130 -312 19 -59 17 -61 -79 -105 -287 -132 -605 -121 -874 32 l-53
31 118 34 c411 118 874 373 1214 669 52 45 113 101 135 123 49 51 54 43 43
-75z m-2023 -231 c39 -135 130 -293 230 -402 l60 -64 -120 5 c-105 4 -128 8
-183 33 -69 31 -104 65 -122 121 -24 72 8 195 81 314 17 28 32 50 34 50 2 0
11 -26 20 -57z m1819 -239 c9 -3 16 -13 16 -20 0 -17 -193 -214 -209 -214 -19
0 -33 52 -26 97 7 47 42 95 90 124 29 18 97 25 129 13z"/>
<path d="M770 1721 c-84 -26 -168 -98 -211 -181 -21 -39 -24 -59 -24 -150 0
-98 2 -109 30 -159 33 -60 87 -110 154 -143 39 -20 62 -23 151 -23 94 0 110 3
155 27 67 35 118 90 150 161 24 52 27 68 23 150 -4 111 -28 168 -100 239 -63
61 -134 88 -231 87 -40 0 -83 -4 -97 -8z m214 -110 c82 -43 128 -123 127 -222
0 -139 -100 -239 -239 -239 -103 0 -179 44 -226 131 -53 96 -30 217 55 294 85
77 183 89 283 36z"/>
<path d="M1643 1684 c-62 -37 -93 -95 -93 -174 0 -50 5 -73 25 -106 37 -63 95
-94 175 -94 80 0 138 31 175 94 35 60 35 152 0 212 -37 63 -95 94 -176 94 -51
0 -73 -5 -106 -26z m166 -78 c31 -17 51 -54 51 -96 0 -86 -83 -135 -165 -98
-71 32 -73 156 -4 194 32 18 83 17 118 0z"/>
</g>
</svg>
