<?xml version="1.0" standalone="no"?>
<!DOCTYPE svg PUBLIC "-//W3C//DTD SVG 20010904//EN"
 "http://www.w3.org/TR/2001/REC-SVG-20010904/DTD/svg10.dtd">
<svg version="1.0" xmlns="http://www.w3.org/2000/svg"
 width="256.000000pt" height="256.000000pt" viewBox="0 0 256.000000 256.000000"
 preserveAspectRatio="xMidYMid meet">
<metadata>
Created by potrace 1.16, written by Peter Selinger 2001-2019
</metadata>
<g transform="translate(0.000000,256.000000) scale(0.100000,-0.100000)"
fill="#000000" stroke="none">
<path d="M871 2544 c-104 -28 -181 -74 -267 -159 -127 -126 -179 -254 -178
-435 1 -158 17 -199 225 -557 71 -122 129 -227 129 -233 0 -6 -56 -108 -125
-227 l-125 -216 0 -88 0 -89 -28 0 c-26 0 -38 -17 -165 -236 -112 -190 -138
-242 -135 -267 l3 -32 459 -3 c486 -2 476 -3 476 43 0 11 -60 123 -134 248
l-134 229 61 106 c33 59 66 113 72 120 10 11 22 -3 64 -76 56 -99 95 -128 155
-119 21 3 71 -10 162 -44 138 -52 194 -60 232 -33 17 12 26 13 36 4 11 -9 -8
-49 -105 -213 -65 -111 -119 -211 -119 -222 0 -46 -10 -45 476 -43 l459 3 3
32 c3 25 -21 72 -119 240 -150 255 -155 263 -181 263 -16 0 -18 4 -12 18 5 9
9 53 10 98 1 44 6 89 12 100 5 10 20 84 32 164 16 101 28 152 41 169 12 15 19
40 19 69 0 40 -28 93 -296 556 -163 281 -310 535 -328 565 -68 117 -221 229
-361 266 -75 19 -241 19 -314 -1z m188 -68 c-2 -2 -98 -58 -214 -126 -116 -67
-225 -132 -243 -143 l-34 -20 15 29 c44 83 167 187 265 224 31 12 89 25 127
30 39 4 74 8 79 9 5 0 7 -1 5 -3z m191 -52 c22 -9 40 -19 40 -23 0 -4 -34 -26
-75 -49 -79 -46 -115 -82 -115 -116 0 -11 29 -72 65 -135 36 -63 64 -115 63
-116 -16 -12 -146 -85 -151 -85 -4 0 -21 25 -38 55 -17 31 -39 60 -49 65 -36
19 -84 10 -150 -28 -99 -58 -108 -93 -51 -191 l30 -51 -22 -14 c-12 -7 -47
-29 -77 -48 -105 -66 -94 -66 -134 4 -50 92 -70 168 -69 273 0 49 5 91 9 92 5
2 158 89 339 193 182 105 333 190 337 190 4 0 26 -7 48 -16z m216 -196 c24
-36 44 -70 44 -75 0 -4 -45 -33 -100 -65 l-99 -56 -57 100 c-45 80 -54 102
-43 109 8 5 48 28 89 52 l75 44 24 -21 c13 -12 43 -51 67 -88z m359 -616 c141
-243 255 -450 253 -459 -2 -11 -93 -70 -233 -150 -645 -372 -634 -366 -649
-354 -8 7 -40 57 -72 112 l-56 99 88 155 c49 85 92 155 96 155 3 0 27 -36 52
-80 72 -124 93 -127 250 -38 115 66 145 100 133 149 -12 44 -277 494 -308 520
-29 26 -89 49 -125 49 -40 0 -96 -22 -129 -51 -20 -18 -84 -117 -157 -244 -68
-118 -125 -215 -128 -215 -5 0 -155 254 -165 280 -4 12 102 77 437 271 244
141 446 253 450 250 3 -3 122 -205 263 -449z m-509 41 c57 -37 54 -121 -6
-161 -70 -47 -155 -2 -155 82 0 86 86 128 161 79z m204 -336 c40 -70 70 -130
67 -134 -4 -3 -44 -27 -89 -53 l-83 -47 -52 91 c-29 50 -53 95 -53 99 0 4 26
52 57 107 49 85 58 97 68 82 7 -9 45 -74 85 -145z m-427 138 c9 -23 80 -65
124 -73 l41 -7 -220 -383 -220 -382 -69 37 c-130 71 -143 16 106 447 120 207
221 376 225 376 4 0 10 -7 13 -15z m922 -554 c-8 -51 -15 -95 -17 -97 -2 -2
-103 -60 -223 -130 l-220 -127 -97 34 c-53 18 -96 35 -94 36 8 8 660 382 663
380 1 -2 -4 -45 -12 -96z m-37 -264 c-3 -24 -13 -55 -23 -70 -17 -26 -20 -27
-118 -27 -55 0 -97 3 -94 6 11 11 221 132 231 133 5 1 6 -18 4 -42z m-1071
-365 l112 -187 -175 -3 c-95 -1 -253 -1 -348 0 l-175 3 107 187 107 187 130 0
130 0 112 -187z m1235 0 l107 -187 -175 -3 c-95 -1 -253 -1 -348 0 l-175 3
112 187 112 187 130 0 130 0 107 -187z"/>
</g>
</svg>
