<?xml version="1.0" standalone="no"?>
<!DOCTYPE svg PUBLIC "-//W3C//DTD SVG 20010904//EN"
 "http://www.w3.org/TR/2001/REC-SVG-20010904/DTD/svg10.dtd">
<svg version="1.0" xmlns="http://www.w3.org/2000/svg"
 width="256.000000pt" height="256.000000pt" viewBox="0 0 256.000000 256.000000"
 preserveAspectRatio="xMidYMid meet">
<metadata>
Created by potrace 1.16, written by Peter Selinger 2001-2019
</metadata>
<g transform="translate(0.000000,256.000000) scale(0.100000,-0.100000)"
fill="#FFFFFF" stroke="none">
<path d="M898 2545 c-20 -12 -60 -79 -164 -283 -75 -147 -211 -410 -301 -584
-167 -325 -180 -360 -149 -401 8 -10 63 -38 122 -62 l109 -44 -115 6 c-108 5
-117 4 -143 -17 l-27 -21 0 -148 c0 -144 1 -148 25 -171 24 -22 29 -23 142
-17 l118 6 -110 -45 c-60 -24 -116 -52 -122 -61 -61 -82 136 -380 345 -522 86
-58 209 -115 317 -147 122 -36 358 -45 486 -19 231 46 416 147 570 312 72 77
150 195 180 273 17 45 18 54 5 84 -12 29 -27 39 -122 79 l-108 46 115 -6 c107
-5 115 -4 137 16 21 21 22 29 22 171 0 142 -1 150 -22 171 -22 20 -30 21 -137
16 l-115 -6 108 46 c96 41 110 50 122 80 13 31 12 38 -11 97 -14 34 -25 65
-25 68 0 4 30 25 68 48 37 23 79 54 95 68 l27 26 0 149 0 148 -51 125 c-30 72
-60 131 -72 139 -30 21 -90 19 -111 -4 -9 -10 -39 -69 -66 -131 -39 -88 -50
-123 -50 -165 0 -34 -5 -55 -13 -58 -8 -3 -74 116 -196 355 -151 296 -189 363
-215 379 -25 15 -50 19 -133 19 -147 0 -143 5 -143 -205 l0 -165 -55 0 -55 0
0 164 0 165 -26 20 c-23 18 -40 21 -128 21 -69 -1 -110 -5 -128 -15z m202
-210 c0 -140 -1 -145 -25 -169 -23 -23 -25 -33 -25 -114 l0 -88 -61 -13 c-98
-20 -222 -69 -311 -122 -45 -27 -82 -48 -84 -47 -6 7 340 665 358 681 15 12
38 17 84 17 l64 0 0 -145z m404 136 c11 -4 83 -134 192 -346 95 -187 171 -341
169 -343 -2 -2 -19 7 -37 21 -58 45 -220 117 -314 140 l-91 22 -5 88 c-5 72
-10 92 -27 111 -19 21 -21 33 -21 169 l0 147 58 -1 c31 0 65 -4 76 -8z m-150
-811 c16 -248 27 -453 24 -455 -3 -3 -21 2 -41 10 -49 20 -169 20 -208 -1 -17
-8 -33 -13 -36 -10 -3 3 7 208 23 456 l28 450 91 0 91 0 28 -450z m-324 102
l0 -108 -52 -17 c-151 -48 -300 -177 -388 -338 l-25 -47 -103 40 -103 40 41
76 c110 203 293 355 528 437 107 38 102 42 102 -83z m544 67 c78 -28 188 -88
236 -128 l25 -20 -76 -77 -77 -77 -46 32 c-50 35 -164 91 -183 91 -8 0 -13 13
-13 33 0 19 -3 69 -7 112 l-6 77 34 -7 c19 -4 70 -20 113 -36z m686 -76 l-1
-108 -365 -235 c-201 -129 -379 -243 -395 -253 l-29 -19 1 39 c1 37 10 47 300
316 l299 278 0 45 0 44 95 0 95 0 0 -107z m-1250 -230 c0 -16 -5 -108 -12
-207 l-11 -179 -83 7 c-87 6 -244 58 -244 80 0 28 69 127 129 186 55 54 184
139 214 140 4 0 7 -12 7 -27z m537 -15 c29 -16 54 -32 56 -36 1 -4 -30 -38
-70 -76 l-73 -70 0 51 c0 27 -3 78 -7 113 l-6 62 24 -7 c13 -4 48 -21 76 -37z
m550 -174 c-7 -7 -350 -144 -353 -141 -2 1 70 51 159 109 l162 107 18 -35 c10
-20 17 -38 14 -40z m-776 -221 c77 -65 79 -173 4 -243 -23 -22 -36 -25 -95
-25 -59 0 -72 3 -95 25 -78 73 -71 189 15 248 49 33 128 31 171 -5z m-881
-123 l0 -100 -65 0 -65 0 0 100 0 100 65 0 65 0 0 -100z m1710 0 l0 -100 -65
0 -65 0 0 100 0 100 65 0 65 0 0 -100z m-1337 73 l165 -6 4 -62 3 -63 -85 -6
c-47 -3 -151 -9 -232 -12 l-148 -7 0 81 0 82 63 0 c35 0 138 -3 230 -7z m1127
-73 l0 -80 -63 0 c-35 0 -139 3 -231 7 l-168 6 4 66 3 66 115 5 c63 4 166 7
228 8 l112 2 0 -80z m-886 -177 c102 -86 251 -85 354 2 33 28 34 28 135 21 81
-5 119 -13 185 -39 61 -24 81 -36 77 -47 -18 -49 -79 -131 -141 -190 -120
-114 -262 -170 -430 -171 -173 0 -321 59 -440 176 -64 63 -134 162 -134 191 0
14 132 66 190 75 25 3 74 7 109 8 55 1 67 -2 95 -26z m-334 -303 c144 -145
302 -210 510 -210 275 0 516 140 639 370 l31 59 97 -40 c53 -21 98 -41 101
-44 2 -2 -12 -34 -33 -71 -109 -199 -282 -347 -500 -429 -190 -72 -441 -75
-641 -10 -218 72 -432 252 -529 446 l-35 68 103 39 102 40 35 -67 c23 -43 63
-95 120 -151z"/>
</g>
</svg>
