<?xml version="1.0" standalone="no"?>
<!DOCTYPE svg PUBLIC "-//W3C//DTD SVG 20010904//EN"
 "http://www.w3.org/TR/2001/REC-SVG-20010904/DTD/svg10.dtd">
<svg version="1.0" xmlns="http://www.w3.org/2000/svg"
 width="256.000000pt" height="256.000000pt" viewBox="0 0 256.000000 256.000000"
 preserveAspectRatio="xMidYMid meet">
<metadata>
Created by potrace 1.16, written by Peter Selinger 2001-2019
</metadata>
<g transform="translate(0.000000,256.000000) scale(0.100000,-0.100000)"
fill="#FFFFFF" stroke="none">
<path d="M1177 2554 c-4 -4 -7 -31 -7 -61 0 -53 0 -53 -31 -53 -41 0 -64 -14
-77 -47 -20 -50 -94 -602 -87 -645 8 -48 79 -128 113 -128 22 0 22 -3 22 -155
0 -123 -3 -155 -13 -155 -26 0 -47 -36 -47 -78 l0 -42 -145 0 -145 0 0 87 c0
74 -4 92 -25 129 -73 125 -269 128 -346 6 l-29 -46 0 -663 c0 -650 0 -663 20
-683 18 -18 33 -20 180 -20 147 0 162 2 180 20 19 19 20 33 20 435 l0 415 145
0 145 0 0 -206 0 -206 34 -34 34 -34 167 0 167 0 34 34 34 34 0 206 0 206 145
0 145 0 0 -415 c0 -402 1 -416 20 -435 18 -18 33 -20 180 -20 147 0 162 2 180
20 20 20 20 33 20 682 l0 661 -25 43 c-73 125 -269 128 -346 6 -26 -42 -29
-54 -29 -134 l0 -88 -145 0 -145 0 0 43 c0 43 -21 77 -48 77 -9 0 -12 43 -12
155 0 152 0 155 22 155 31 0 105 81 114 125 7 38 -69 600 -88 648 -13 33 -36
47 -77 47 -30 0 -30 1 -33 58 l-3 57 -35 0 -35 0 -3 -57 -3 -58 -34 0 -34 0
-3 58 c-3 55 -4 57 -33 60 -17 2 -34 0 -38 -4z m292 -488 c48 -324 48 -326
-14 -352 -19 -8 -38 -14 -43 -14 -5 0 -13 69 -17 153 -8 185 -16 225 -50 255
-56 48 -138 15 -155 -63 -5 -22 -12 -109 -15 -192 -4 -84 -12 -153 -17 -153
-5 0 -24 6 -43 14 -62 26 -62 28 -14 352 l44 294 140 0 140 0 44 -294z m-89
-601 l0 -155 -95 0 -95 0 0 155 0 155 95 0 95 0 0 -155z m-751 -81 c40 -33 51
-77 51 -206 l0 -108 -120 0 -120 0 0 108 c0 59 5 124 10 144 14 51 61 88 110
88 27 0 48 -8 69 -26z m1450 0 c40 -33 51 -77 51 -206 l0 -108 -120 0 -120 0
0 108 c0 59 5 124 10 144 14 51 61 88 110 88 27 0 48 -8 69 -26z m-639 -514
c0 -437 15 -400 -155 -400 -170 0 -155 -37 -155 400 l0 360 155 0 155 0 0
-360z m-390 160 l0 -80 -145 0 -145 0 0 80 0 80 145 0 145 0 0 -80z m760 0 l0
-80 -145 0 -145 0 0 80 0 80 145 0 145 0 0 -80z m-1140 -105 l0 -65 -110 0
-110 0 0 65 0 65 110 0 110 0 0 -65z m1450 0 l0 -65 -110 0 -110 0 0 65 0 65
110 0 110 0 0 -65z m-1474 -202 c-8 -71 -32 -191 -52 -260 -11 -41 -19 -53
-34 -53 -15 0 -23 12 -34 53 -20 69 -44 189 -52 260 l-7 57 93 0 93 0 -7 -57z
m1450 0 c-8 -71 -32 -191 -52 -260 -11 -41 -19 -53 -34 -53 -15 0 -23 12 -34
53 -20 69 -44 189 -52 260 l-7 57 93 0 93 0 -7 -57z m-1605 -387 c27 -18 100
-21 130 -5 11 5 29 25 39 42 l20 32 0 -162 0 -163 -120 0 -120 0 0 168 c1 149
2 164 14 136 8 -17 24 -39 37 -48z m1639 -91 l0 -165 -120 0 -120 0 0 163 0
162 20 -32 c25 -41 48 -53 105 -53 38 0 52 5 76 29 16 16 29 37 29 45 0 9 2
16 5 16 3 0 5 -74 5 -165z"/>
</g>
</svg>
